# xmcd
#
# Track frame offsets:
# 150
# 11927
# 24960
# 35540
# 47865
# 57214
# 69987
# 83247
# 95630
# 105750
# 114225
# 128117
# 138015
# 148595
# 158102
# 170380
# 181727
# 193847
# 206925
# 219072
# 230185
# 241075
# 252280
# 263802
# 274047
# 288890
#
# Disc length: 3960 seconds
#
#
# Revision: 0
# Processed by: cddbd v1.5PL3 Copyright (c) Steve Scherf et al.
# Submitted via: FreeRIP 2.53 
#
DISCID=680f761a
DTITLE=Chuck Berry - The Latest And The Greatest/You Never can Tell
DYEAR=1998
DGENRE=Rock and Roll
TTITLE0=Nadine (Is It You?)
TTITLE1=Fraulein
TTITLE2=Guitar Boogie
TTITLE3=Thing I Used To Do
TTITLE4=Don't You Lie To Me
TTITLE5=Driftin' Blues
TTITLE6=Liverpool Drive
TTITLE7=No Particular Place To Go
TTITLE8=Lonely All The Time
TTITLE9=Jaguar And The Thunderbird
TTITLE10=O Rangutang
TTITLE11=You Two
TTITLE12=Deep Feeling
TTITLE13=Bye Bye Johnny
TTITLE14=You Never Can Tell
TTITLE15=Diploma For Two
TTITLE16=The Little Girl From Central
TTITLE17=The Way It Was Before
TTITLE18=Round and Round
TTITLE19=Big Ben
TTITLE20=The Promised Land
TTITLE21=Back In The USA
TTITLE22=Run Around
TTITLE23=Brenda Lee
TTITLE24=Reelin' And Rockin'
TTITLE25=Come On
EXTD=
EXTT0=
EXTT1=
EXTT2=
EXTT3=
EXTT4=
EXTT5=
EXTT6=
EXTT7=
EXTT8=
EXTT9=
EXTT10=
EXTT11=
EXTT12=
EXTT13=
EXTT14=
EXTT15=
EXTT16=
EXTT17=
EXTT18=
EXTT19=
EXTT20=
EXTT21=
EXTT22=
EXTT23=
EXTT24=
EXTT25=
PLAYORDER=
